<svg class="icon" style="width: 1em;height: 1em;vertical-align: middle;fill: currentColor;overflow: hidden;"
     viewBox="0 0 1024 1024" version="1.1" xmlns="http://www.w3.org/2000/svg" p-id="6069" width="20" height="20">
    <path d="M128.4 840.1c0 31 25.1 56.1 56.1 56.1h655.8c31 0 56.1-25.1 56.1-56.1V352.5h-768v487.6z m271.3-371.5c0-11.6 9.5-21 21-21h182.2c11.6 0 21 9.5 21 21v22c0 11.6-9.5 21-21 21H420.7c-11.6 0-21-9.5-21-21v-22z m504.6-340.4H119.4c-31 0-56.1 25.1-56.1 56.1v77.1c0 15.4 12.6 28 28 28h841c15.4 0 28-12.6 28-28v-77.1c0.1-31-25-56.1-56-56.1z"
          p-id="6070"/>
</svg>